# xmcd
#
# Track frame offsets: 
#        150
#        12479
#        18411
#        24962
#        38203
#        55752
#        73205
#        84170
#        104549
#        128904
#        153289
#        182973
#        213911
#        243998
#        266518
#        288200
#
# Disc length: 4324 seconds
#
# Revision: 1
# Processed by: cddbd v1.5.2PL0 Copyright (c) Steve Scherf et al.
# Submitted via: ExactAudioCopy v1.0b1
#
DISCID=d510e210
DTITLE=Various Artist - Club Transmediale 04 (Fly Utopia) CD2
DYEAR=2004
DGENRE=Abstract, IDM, Downtempo, Experimental
TTITLE0=Column One - No Limits To The Imagination
TTITLE1=Teleform - Cosine ID 21
TTITLE2=Marcus Maeder - Knk (Excerpt)
TTITLE3=Andrey Kiritchenko - Suntouch
TTITLE4=Tarwater - Dark Zone
TTITLE5=Boris D. Hegenbart and Weiser - Markobe 1+2 (Rework)
TTITLE6=Dictaphone - Sonne Free
TTITLE7=Masha Qrella - I Want You To Know
TTITLE8=Safety Scissors - Stormy Weather
TTITLE9=Jeff Milligan - Eight
TTITLE10=Murcof - Mir
TTITLE11=Farben - Farben Saysloveohlove
TTITLE12=Hakan Lidbo - Mongoloid
TTITLE13=Monotekktoni - Flausguck
TTITLE14=Tim Hecker - The Star Compass
TTITLE15=Thomas Koner - Tu, Sempre (Excerpt)
EXTD=
EXTT0=
EXTT1=
EXTT2=
EXTT3=
EXTT4=
EXTT5=
EXTT6=
EXTT7=
EXTT8=
EXTT9=
EXTT10=
EXTT11=
EXTT12=
EXTT13=
EXTT14=
EXTT15=
PLAYORDER=
